#!OML:ASF X:\für Bonn\!DataBase\2005_08_10_Bjorn_Final\c3d\bjorn.ASF
:FULLY-SPECIFIED
:DEGREES
238
root 1.85939 5.12186 19.7511 -422.628 -161.614 -713.835
lowerback 49.2098 3.41834 13.3096
upperback 23.8736 -1.09025 4.80537
thorax 7.24635 -4.66326 -1.22778
lowerneck -8.8265 -1.31978 -11.6549
upperneck 23.2717 0.673701 -11.1815
head 8.92553 -2.56056 -1.93769
rclavicle 1.32689e-014 -9.0447e-015
rhumerus -219.865 -136.656 103.05
rradius 14.7926
rwrist -29.2322
rhand -13.8236 -8.52949
rfingers 7.12502
rthumb 12.2992 -38.1478
lclavicle 1.32689e-014 -9.0447e-015
lhumerus -22.9193 42.0415 78.2324
lradius 6.41913
lwrist -15.802
lhand -31.0345 -352.088
lfingers 7.12502
lthumb -4.31646 37.8476
rfemur -65.8546 -35.9698 -2.02858
rtibia 124.961
rfoot 9.48872 13.0513
rtoes -7.41805
lfemur 120.555 131.383 189.317
ltibia 143.14
lfoot -23.2383 -22.9307
ltoes -12.5804
239
root 1.84648 5.11846 19.773 -422.597 -161.669 -713.836
lowerback 49.1103 3.44517 13.1828
upperback 23.7768 -1.03569 4.75626
thorax 7.12875 -4.61554 -1.23174
lowerneck -8.84204 -1.21902 -11.7031
upperneck 23.1908 0.848294 -11.4492
head 8.90639 -2.51611 -2.00479
rclavicle 8.79622e-015 1.89342e-014
rhumerus -220.253 -136.141 103.69
rradius 14.5972
rwrist -28.5374
rhand -13.8681 -8.65513
rfingers 7.12502
rthumb 12.2562 -38.276
lclavicle 8.79622e-015 1.89342e-014
lhumerus -23.1315 41.5319 78.2354
lradius 6.43463
lwrist -15.5829
lhand -31.0071 -351.876
lfingers 7.12502
lthumb -4.28996 38.0608
rfemur -65.9493 -34.9993 -1.49546
rtibia 124.183
rfoot 9.76749 12.3673
rtoes -6.75933
lfemur 120.191 131.801 188.755
ltibia 143.063
lfoot -22.7028 -22.8911
ltoes -12.0485
240
root 1.83271 5.11553 19.7965 -422.555 -161.748 -713.863
lowerback 49.0085 3.48536 13.0565
upperback 23.6976 -0.979823 4.71811
thorax 7.0334 -4.57284 -1.22704
lowerneck -8.91317 -1.11406 -11.7124
upperneck 23.123 1.04223 -11.7687
head 8.9034 -2.46817 -2.09577
rclavicle -5.37588e-014 -2.64881e-014
rhumerus -220.587 -135.687 104.289
rradius 14.4247
rwrist -27.8545
rhand -13.9474 -8.72098
rfingers 7.12502
rthumb 12.1798 -38.3464
lclavicle -5.37588e-014 -2.64881e-014
lhumerus -23.3258 41.0456 78.2642
lradius 6.45325
lwrist -15.3492
lhand -30.9498 -351.648
lfingers 7.12502
lthumb -4.23467 38.2898
rfemur -65.9746 -33.9896 -0.984212
rtibia 123.371
rfoot 10.0416 11.6859
rtoes -6.03702
lfemur 119.92 132.078 188.293
ltibia 142.985
lfoot -22.2135 -22.883
ltoes -11.5753
241
root 1.81853 5.11214 19.821 -422.504 -161.811 -713.905
lowerback 48.9291 3.50916 12.9244
upperback 23.6094 -0.942152 4.65378
thorax 6.92296 -4.53705 -1.24043
lowerneck -8.99991 -1.00798 -11.7118
upperneck 23.0612 1.23678 -12.0646
head 8.90559 -2.41687 -2.18054
rclavicle -7.3923e-016 1.61264e-014
rhumerus -220.932 -135.225 104.877
rradius 14.2546
rwrist -27.2091
rhand -14.0238 -8.80542
rfingers 7.12502
rthumb 12.1062 -38.4352
lclavicle -7.3923e-016 1.61264e-014
lhumerus -23.5379 40.5752 78.2565
lradius 6.48009
lwrist -15.139
lhand -30.8659 -351.356
lfingers 7.12502
lthumb -4.1536 38.583
rfemur -65.949 -33.0356 -0.531783
rtibia 122.541
rfoot 10.3259 11.0131
rtoes -5.29129
lfemur 119.611 132.429 187.739
ltibia 142.897
lfoot -21.6676 -22.7934
ltoes -11.0653
242
root 1.80281 5.107 19.8421 -422.442 -161.92 -713.959
lowerback 48.8165 3.52914 12.8087
upperback 23.5491 -0.925829 4.59477
thorax 6.85206 -4.51544 -1.25463
lowerneck -9.10802 -0.886673 -11.7425
upperneck 22.978 1.45708 -12.347
head 8.90549 -2.35398 -2.25274
rclavicle -2.99482e-014 2.5345e-015
rhumerus -221.259 -134.772 105.501
rradius 14.0691
rwrist -26.4277
rhand -14.0767 -8.86761
rfingers 7.12502
rthumb 12.0551 -38.5004
lclavicle -2.99482e-014 2.5345e-015
lhumerus -23.7541 40.1709 78.2496
lradius 6.53554
lwrist -14.8744
lhand -30.7226 -351.141
lfingers 7.12502
lthumb -4.01523 38.8008
rfemur -65.9283 -32.1826 -0.0769903
rtibia 121.732
rfoot 10.6712 10.4157
rtoes -4.5371
lfemur 119.386 132.539 187.38
ltibia 142.841
lfoot -21.1331 -22.8553
ltoes -10.3331
243
root 1.78752 5.10097 19.8621 -422.378 -162.03 -714.019
lowerback 48.706 3.52426 12.677
upperback 23.4896 -0.953298 4.51847
thorax 6.77881 -4.51845 -1.26765
lowerneck -9.1578 -0.737799 -11.8925
upperneck 22.8266 1.70105 -12.5485
head 8.8711 -2.27431 -2.27203
rclavicle -9.28216e-014 4.09372e-014
rhumerus -221.549 -134.403 106.08
rradius 13.892
rwrist -25.7054
rhand -14.1537 -8.96093
rfingers 7.12502
rthumb 11.9809 -38.598
lclavicle -9.28216e-014 4.09372e-014
lhumerus -24.0449 39.8547 78.1855
lradius 6.65093
lwrist -14.5945
lhand -30.4965 -350.891
lfingers 7.12502
lthumb -3.79697 39.0546
rfemur -65.8732 -31.4218 0.345605
rtibia 120.937
rfoot 11.0743 9.84253
rtoes -3.43682
lfemur 119.143 132.633 187.021
ltibia 142.803
lfoot -20.6488 -22.8114
ltoes -9.85335
244
root 1.77119 5.09305 19.8806 -422.308 -162.15 -714.119
lowerback 48.6281 3.51725 12.5185
upperback 23.4304 -1.00202 4.42268
thorax 6.69792 -4.53831 -1.2819
lowerneck -9.22187 -0.564735 -12.0113
upperneck 22.6529 1.97617 -12.7583
head 8.83178 -2.17634 -2.2953
rclavicle 9.3025e-014 2.34939e-014
rhumerus -221.802 -134.109 106.628
rradius 13.6978
rwrist -24.974
rhand -14.1896 -9.00805
rfingers 7.12502
rthumb 11.9462 -38.6472
lclavicle 9.3025e-014 2.34939e-014
lhumerus -24.3721 39.6136 78.0916
lradius 6.79522
lwrist -14.3035
lhand -30.2779 -350.591
lfingers 7.12502
lthumb -3.58585 39.3583
rfemur -65.8165 -30.7147 0.723407
rtibia 120.165
rfoot 11.5554 9.32927
rtoes -2.39416
lfemur 118.987 132.644 186.732
ltibia 142.774
lfoot -20.1951 -22.7378
ltoes -9.38707
245
root 1.75465 5.08418 19.8997 -422.243 -162.275 -714.205
lowerback 48.5439 3.49125 12.4542
upperback 23.407 -1.05169 4.30011
thorax 6.66997 -4.54739 -1.37157
lowerneck -9.3335 -0.437372 -12.0794
upperneck 22.4572 2.19168 -12.9319
head 8.79196 -2.0916 -2.31896
rclavicle -6.70401e-014 -7.77745e-015
rhumerus -221.984 -133.714 107.069
rradius 13.5208
rwrist -24.2828
rhand -14.2803 -9.05475
rfingers 7.12502
rthumb 11.8588 -38.6989
lclavicle -6.70401e-014 -7.77745e-015
lhumerus -24.5485 39.2899 78.0498
lradius 6.88197
lwrist -14.025
lhand -30.0784 -350.346
lfingers 7.12502
lthumb -3.39316 39.6071
rfemur -65.7434 -30.0987 1.09159
rtibia 119.414
rfoot 12.0531 8.82122
rtoes -1.55795
lfemur 118.76 132.759 186.375
ltibia 142.761
lfoot -19.7606 -22.5071
ltoes -8.92378
246
root 1.738 5.0746 19.9158 -422.18 -162.408 -714.317
lowerback 48.4977 3.48524 12.3847
upperback 23.3812 -1.07902 4.17583
thorax 6.63397 -4.54874 -1.465
lowerneck -9.48427 -0.315019 -12.0286
upperneck 22.3127 2.40213 -13.1346
head 8.77723 -2.00679 -2.37396
rclavicle -1.01256e-014 -3.62782e-014
rhumerus -222.313 -133.146 107.671
rradius 13.3519
rwrist -23.4267
rhand -14.3311 -9.08595
rfingers 7.12502
rthumb 11.8098 -38.733
lclavicle -1.01256e-014 -3.62782e-014
lhumerus -24.7093 38.9318 77.9953
lradius 6.94781
lwrist -13.7814
lhand -29.8808 -350.099
lfingers 7.12502
lthumb -3.20238 39.857
rfemur -65.6427 -29.5712 1.4072
rtibia 118.699
rfoot 12.6837 8.31771
rtoes -0.329764
lfemur 118.637 132.711 186.133
ltibia 142.768
lfoot -19.4064 -22.2913
ltoes -8.55159
247
root 1.72181 5.06384 19.9325 -422.124 -162.527 -714.426
lowerback 48.4922 3.49438 12.2726
upperback 23.3455 -1.10642 4.08685
thorax 6.57735 -4.56385 -1.4982
lowerneck -9.68367 -0.187433 -11.9964
upperneck 22.214 2.63598 -13.3633
head 8.78996 -1.92409 -2.43565
rclavicle 1.37658e-014 -2.43511e-015
rhumerus -222.497 -132.773 108.136
rradius 13.1934
rwrist -22.7418
rhand -14.4153 -9.11417
rfingers 7.12502
rthumb 11.7287 -38.7658
lclavicle 1.37658e-014 -2.43511e-015
lhumerus -24.8512 38.6184 77.9899
lradius 6.94409
lwrist -13.6192
lhand -29.7492 -349.882
lfingers 7.12502
lthumb -3.07526 40.0752
rfemur -65.5511 -29.1453 1.68621
rtibia 118.031
rfoot 13.4078 7.82856
rtoes 1.05434
lfemur 118.473 132.762 185.829
ltibia 142.772
lfoot -18.9593 -22.0094
ltoes -7.95032
248
root 1.70583 5.05261 19.9478 -422.08 -162.634 -714.541
lowerback 48.4992 3.51849 12.178
upperback 23.3312 -1.1209 4.01704
thorax 6.54731 -4.57709 -1.52445
lowerneck -9.95551 -0.0990788 -11.9685
upperneck 22.1678 2.83352 -13.5522
head 8.83424 -1.86015 -2.4891
rclavicle -2.045e-014 3.04638e-014
rhumerus -222.679 -132.339 108.608
rradius 13.0676
rwrist -22.0533
rhand -14.5039 -9.14482
rfingers 7.12502
rthumb 11.6432 -38.8013
lclavicle -2.045e-014 3.04638e-014
lhumerus -24.8947 38.2739 78.0784
lradius 6.92458
lwrist -13.4292
lhand -29.6321 -349.652
lfingers 7.12502
lthumb -2.96221 40.3075
rfemur -65.4535 -28.8366 1.9192
rtibia 117.416
rfoot 14.1001 7.37986
rtoes 1.95908
lfemur 118.344 132.78 185.572
ltibia 142.782
lfoot -18.4659 -21.7909
ltoes -7.09321
249
root 1.68864 5.04092 19.9619 -422.038 -162.747 -714.677
lowerback 48.5572 3.54077 12.0666
upperback 23.2945 -1.1374 3.94204
thorax 6.48188 -4.59527 -1.54298
lowerneck -10.2005 0.00249685 -11.9439
upperneck 22.1132 3.0401 -13.7217
head 8.87051 -1.78887 -2.53337
rclavicle 5.52373e-014 7.45443e-015
rhumerus -222.844 -131.998 109.046
rradius 12.9357
rwrist -21.3987
rhand -14.5783 -9.19745
rfingers 7.12502
rthumb 11.5714 -38.858
lclavicle 5.52373e-014 7.45443e-015
lhumerus -25.0134 37.946 78.1119
lradius 6.90161
lwrist -13.2428
lhand -29.5346 -349.458
lfingers 7.12502
lthumb -2.86802 40.5021
rfemur -65.3555 -28.5899 2.10323
rtibia 116.86
rfoot 14.7035 6.9325
rtoes 2.42367
lfemur 118.237 132.761 185.313
ltibia 142.806
lfoot -18.0354 -21.4914
ltoes -6.38643
